<svg width="289" height="41" viewBox="0 0 289 41" fill="none" xmlns="http://www.w3.org/2000/svg">
    <path d="M190.066 23.6953L195.57 37.4691L201.126 23.6953H203.336L196.681 39.8659H194.515L187.832 23.6953H190.066Z" fill="#7C7C7C"/>
    <path d="M214.46 38.0014C213.879 38.6815 213.133 39.2007 212.293 39.5094C211.419 39.8518 210.489 40.0281 209.551 40.0292C208.758 40.0611 207.966 39.934 207.222 39.6552C206.479 39.3765 205.799 38.9518 205.222 38.4062C204.113 37.3242 203.56 35.8837 203.563 34.0848C203.532 33.3022 203.664 32.5217 203.949 31.7923C204.235 31.063 204.668 30.4006 205.222 29.8468C205.776 29.293 206.438 28.8597 207.167 28.5743C207.897 28.2888 208.677 28.1573 209.46 28.188C211.312 28.188 212.775 28.7607 213.849 29.9062C214.923 31.0517 215.357 32.7051 215.15 34.8665H205.476C205.513 35.3478 205.649 35.8164 205.875 36.243C206.101 36.6696 206.412 37.0453 206.789 37.3467C207.587 37.978 208.582 38.3081 209.599 38.2792C210.297 38.2702 210.988 38.1358 211.638 37.8824C212.251 37.6801 212.799 37.3185 213.226 36.8348L214.495 37.9855L214.46 38.0014ZM213.353 33.303C213.359 32.8277 213.263 32.3566 213.072 31.9213C212.881 31.4861 212.599 31.0966 212.245 30.7792C211.471 30.1601 210.497 29.8454 209.507 29.8943C208.539 29.8728 207.593 30.19 206.833 30.7911C206.071 31.4102 205.584 32.3039 205.476 33.2792H213.353V33.303Z" fill="#7C7C7C"/>
    <path d="M218.047 28.418H219.777L219.868 30.2394C220.301 29.611 220.884 29.1005 221.563 28.7541C222.243 28.4076 222.998 28.2362 223.761 28.2553C224.427 28.2306 225.091 28.3441 225.711 28.5885C226.331 28.833 226.894 29.2033 227.364 29.6759C228.295 30.6203 228.761 31.906 228.761 33.533V39.8227H226.868V33.5529C226.896 33.0799 226.829 32.6061 226.672 32.1592C226.514 31.7122 226.269 31.3011 225.952 30.9497C225.252 30.3182 224.336 29.9803 223.394 30.0062C222.452 30.032 221.556 30.4196 220.892 31.0886C220.237 31.8022 219.885 32.7431 219.912 33.7116V39.8227H218.047V28.418Z" fill="#7C7C7C"/>
    <path d="M235.237 28.4653H238.76V30.0764H235.213V36.0883C235.213 37.5486 235.812 38.2787 237.01 38.2787C237.563 38.2724 238.107 38.1365 238.598 37.8819L239.153 39.4494C238.461 39.783 237.707 39.9707 236.939 40.001C234.558 40.0486 233.368 38.751 233.368 36.1081V30.0764H231.086V28.4653H233.368V25.3304L235.257 25.124L235.237 28.4653Z" fill="#7C7C7C"/>
    <path d="M250.301 39.8223L250.21 38.0009C249.778 38.5701 249.23 39.0414 248.603 39.3837C247.976 39.7261 247.284 39.9318 246.572 39.9873C245.859 40.0428 245.143 39.9468 244.471 39.7056C243.798 39.4645 243.185 39.0837 242.67 38.5882C241.755 37.6438 241.297 36.358 241.297 34.7311V28.4414H243.186V34.7073C243.159 35.1808 243.227 35.6549 243.386 36.1019C243.545 36.5488 243.791 36.9597 244.11 37.3104C244.809 37.9417 245.725 38.2795 246.666 38.2536C247.607 38.2277 248.503 37.8402 249.166 37.1715C249.818 36.455 250.165 35.5128 250.134 34.5446V28.4414H252.023V39.8223H250.297H250.301Z" fill="#7C7C7C"/>
    <path d="M257.532 28.4175L257.667 30.1238C258.347 28.8619 259.515 28.2323 261.171 28.2349C262.126 28.1896 263.066 28.4912 263.817 29.0841L262.964 30.6992C262.311 30.2387 261.518 30.02 260.722 30.0809C259.925 30.1417 259.175 30.4782 258.599 31.0325C258.277 31.3517 258.024 31.7347 257.858 32.157C257.692 32.5793 257.616 33.0315 257.635 33.4849V39.8341H255.746V28.4413H257.496L257.532 28.4175Z" fill="#7C7C7C"/>
    <path d="M275.706 38.0014C275.124 38.6777 274.38 39.1952 273.543 39.5054C272.669 39.8478 271.739 40.0241 270.801 40.0252C270.008 40.0571 269.216 39.93 268.472 39.6513C267.729 39.3725 267.049 38.9478 266.472 38.4022C265.366 37.3229 264.813 35.8837 264.813 34.0848C264.782 33.3022 264.914 32.5217 265.199 31.7923C265.485 31.063 265.918 30.4006 266.472 29.8468C267.026 29.293 267.688 28.8597 268.417 28.5743C269.147 28.2888 269.927 28.1573 270.71 28.188C272.562 28.188 274.025 28.7607 275.099 29.9062C276.173 31.0517 276.607 32.7051 276.4 34.8665H266.722C266.759 35.3478 266.895 35.8164 267.121 36.243C267.347 36.6696 267.658 37.0453 268.035 37.3467C268.833 37.978 269.828 38.3081 270.845 38.2792C271.543 38.2699 272.234 38.1355 272.884 37.8824C273.497 37.6801 274.045 37.3185 274.472 36.8348L275.737 37.9855L275.706 38.0014ZM274.599 33.303C274.605 32.8277 274.509 32.3566 274.318 31.9213C274.127 31.4861 273.845 31.0966 273.491 30.7792C272.717 30.1601 271.743 29.8454 270.753 29.8943C269.785 29.8728 268.839 30.19 268.079 30.7911C267.317 31.4102 266.83 32.3039 266.722 33.2792H274.599V33.303Z" fill="#7C7C7C"/>
    <path d="M286.602 30.9775C285.715 30.2129 284.569 29.8168 283.399 29.8703C282.696 29.8278 281.994 29.9715 281.364 30.287C281.122 30.3909 280.918 30.5648 280.776 30.7862C280.635 31.0076 280.563 31.2664 280.57 31.529C280.57 32.4338 281.53 32.9973 283.403 33.2116C283.943 33.2711 284.384 33.3306 284.729 33.3941C285.153 33.4781 285.572 33.5895 285.983 33.7274C286.403 33.8528 286.798 34.0516 287.149 34.3147C287.459 34.5808 287.713 34.9059 287.895 35.2711C288.117 35.709 288.221 36.1973 288.197 36.6878C288.207 37.1927 288.084 37.6914 287.841 38.1342C287.598 38.5769 287.243 38.9484 286.812 39.2116C285.795 39.8329 284.618 40.1407 283.427 40.0965C281.168 40.0965 279.471 39.3835 278.336 37.9576L279.419 36.6441C280.372 37.8108 281.723 38.3941 283.475 38.3941C284.158 38.4128 284.836 38.2771 285.459 37.9973C285.726 37.8859 285.952 37.6969 286.11 37.4549C286.268 37.2129 286.349 36.929 286.344 36.6401C286.36 36.3783 286.295 36.1177 286.157 35.8945C286.02 35.6712 285.816 35.4964 285.574 35.3941C284.844 35.0829 284.07 34.8887 283.28 34.8187C282.721 34.7584 282.167 34.659 281.622 34.5211C281.138 34.3885 280.667 34.2105 280.217 33.9894C279.767 33.783 279.387 33.4508 279.122 33.033C278.851 32.5862 278.713 32.0713 278.725 31.5489C278.714 30.8178 278.992 30.112 279.499 29.5846C279.963 29.072 280.554 28.6914 281.213 28.4814C281.917 28.2586 282.653 28.1566 283.391 28.1798C284.976 28.116 286.524 28.6597 287.721 29.6997L286.641 30.9536L286.602 30.9775Z" fill="#7C7C7C"/>
    <path d="M108.087 0.116211H94.8569L87.0355 10.7551L79.2697 0.116211H66.0396L80.4205 19.8066L65.7539 39.8978H78.984L87.0355 28.8582L95.1466 39.8978H108.373L93.6505 19.8066L108.087 0.116211Z" fill="#2B4ADE"/>
    <path d="M57.2244 0.116211H45.8594V39.8978H57.2244V0.116211Z" fill="#2B4ADE"/>
    <path d="M128.263 0.112305H116.898V39.8939H128.263V0.112305Z" fill="#2B4ADE"/>
    <path d="M165.204 20.9773L148.676 0.144048L139.629 0.148017V39.8939L150.994 39.8542V19.0567L167.569 39.8939H176.569V0.112305H165.204V20.9773Z" fill="#2B4ADE"/>
    <path d="M30.9101 19.0013L31.2474 18.7831C31.7037 18.4815 35.7196 15.7156 35.7196 10.8466C35.7196 4.62041 30.8704 0.100586 24.2117 0.100586H0.402344V39.902H25.2355C32.3585 39.902 37.3307 35.2711 37.3307 28.6362C37.3307 22.3465 31.914 19.5093 31.299 19.1839L30.9101 19.0013ZM11.8626 8.48945H21.2038C23.5847 8.48945 25.1085 9.8823 25.1085 12.041C25.1085 13.6997 24.0847 15.4736 21.2038 15.4736H11.8745L11.8626 8.48945ZM21.2792 31.6878H11.8824V23.7513H21.2911C23.9657 23.7513 25.6958 25.3108 25.6958 27.7195C25.6958 30.0529 23.8863 31.6878 21.2911 31.6878H21.2792Z" fill="#2B4ADE"/>
</svg>