<svg width="626" height="989" viewBox="0 0 626 989" fill="none" xmlns="http://www.w3.org/2000/svg">
<g clip-path="url(#clip0_39_75484)">
<mask id="mask0_39_75484" style="mask-type:alpha" maskUnits="userSpaceOnUse" x="318" y="-223" width="1411" height="1807">
<path d="M508.446 817.187C506.124 923.424 791.076 1008.86 770.338 1125.54C706.552 1326.62 655.413 1286.41 646.598 1387.42C669.525 1681.17 1472.23 1553.5 1728.79 1569.89C1367.85 681.144 1162.5 140.5 400.756 -222.294C391.678 -111.792 303.643 136.144 320.979 226.524C342.649 339.499 370.546 540.543 632.458 455.568C746.408 418.599 511.349 684.391 508.446 817.187Z" fill="url(#paint0_linear_39_75484)"/>
</mask>
<g mask="url(#mask0_39_75484)">
<path fill-rule="evenodd" clip-rule="evenodd" d="M704.642 2217.76L707.992 2223.88L1584.96 1743.33L1581.61 1737.21L704.642 2217.76ZM678.817 2170.64L685.519 2182.87L1562.49 1702.32L1555.78 1690.09L678.817 2170.64ZM652.993 2123.51L659.694 2135.74L1536.66 1655.19L1529.96 1642.96L652.993 2123.51ZM627.169 2076.38L633.87 2088.61L1510.84 1608.06L1504.14 1595.83L627.169 2076.38ZM601.344 2029.25L608.046 2041.48L1485.01 1560.93L1478.31 1548.7L601.344 2029.25ZM575.52 1982.13L582.221 1994.36L1459.19 1513.81L1452.49 1501.58L575.52 1982.13ZM549.695 1935L556.397 1947.23L1433.36 1466.68L1426.66 1454.45L549.695 1935ZM523.871 1887.87L530.572 1900.1L1407.54 1419.55L1400.84 1407.32L523.871 1887.87ZM498.047 1840.74L504.748 1852.97L1381.72 1372.42L1375.01 1360.19L498.047 1840.74ZM472.222 1793.62L478.924 1805.84L1355.89 1325.3L1349.19 1313.07L472.222 1793.62ZM446.398 1746.49L453.099 1758.72L1330.07 1278.17L1323.37 1265.94L446.398 1746.49ZM420.573 1699.36L427.275 1711.59L1304.24 1231.04L1297.54 1218.81L420.573 1699.36ZM394.749 1652.23L401.45 1664.46L1278.42 1183.91L1271.72 1171.68L394.749 1652.23ZM368.925 1605.11L375.626 1617.33L1252.59 1136.78L1245.89 1124.56L368.925 1605.11ZM343.1 1557.98L349.802 1570.21L1226.77 1089.66L1220.07 1077.43L343.1 1557.98ZM317.276 1510.85L323.977 1523.08L1200.94 1042.53L1194.24 1030.3L317.276 1510.85ZM291.451 1463.72L298.153 1475.95L1175.12 995.402L1168.42 983.172L291.451 1463.72ZM265.627 1416.59L272.328 1428.82L1149.3 948.274L1142.59 936.045L265.627 1416.59ZM239.803 1369.47L246.504 1381.7L1123.47 901.147L1116.77 888.917L239.803 1369.47ZM213.978 1322.34L220.68 1334.57L1097.65 854.019L1090.95 841.79L213.978 1322.34ZM188.154 1275.21L194.855 1287.44L1071.82 806.892L1065.12 794.662L188.154 1275.21ZM162.33 1228.08L169.031 1240.31L1046 759.764L1039.3 747.535L162.33 1228.08ZM136.505 1180.96L143.207 1193.19L1020.17 712.636L1013.47 700.407L136.505 1180.96ZM110.681 1133.83L117.382 1146.06L994.349 665.509L987.648 653.279L110.681 1133.83ZM84.8564 1086.7L91.5576 1098.93L968.525 618.381L961.824 606.152L84.8564 1086.7ZM59.0318 1039.57L65.7333 1051.8L942.701 571.254L935.999 559.024L59.0318 1039.57ZM33.2075 992.447L39.9089 1004.68L916.876 524.126L910.175 511.897L33.2075 992.447ZM7.38312 945.319L14.0846 957.549L891.052 476.999L884.351 464.769L7.38312 945.319ZM-18.4412 898.191L-11.74 910.421L865.227 429.871L858.526 417.642L-18.4412 898.191ZM-44.2658 851.064L-37.5643 863.293L839.403 382.743L832.702 370.514L-44.2658 851.064ZM-70.0901 803.936L-63.3886 816.166L813.579 335.616L806.877 323.386L-70.0901 803.936ZM-95.9145 756.809L-89.213 769.038L787.754 288.488L781.053 276.259L-95.9145 756.809ZM-121.739 709.681L-115.038 721.911L761.93 241.361L755.229 229.131L-121.739 709.681ZM-147.563 662.554L-140.862 674.783L736.106 194.233L729.404 182.004L-147.563 662.554ZM-173.388 615.426L-166.686 627.655L710.281 147.106L703.58 134.876L-173.388 615.426ZM-199.212 568.298L-192.511 580.528L684.457 99.9781L677.755 87.7484L-199.212 568.298ZM-225.036 521.171L-218.335 533.4L658.632 52.8506L651.931 40.6209L-225.036 521.171ZM-250.861 474.043L-244.159 486.273L632.808 5.72305L626.107 -6.50663L-250.861 474.043ZM-276.685 426.916L-269.984 439.145L606.984 -41.4048L600.282 -53.6342L-276.685 426.916ZM-302.51 379.788L-295.808 392.018L581.159 -88.5323L574.458 -100.762L-302.51 379.788ZM-324.984 338.775L-321.632 344.89L555.335 -135.66L551.984 -141.775L-324.984 338.775Z" fill="#67E6F9"/>
</g>
</g>
<g clip-path="url(#clip1_39_75484)">
<path d="M13.7498 -178.707C8.40833 -153.281 -47.1477 -98.5508 117.448 -17.2827C233.806 40.1681 234.961 62.5426 238.522 144.142C242.083 225.741 260.708 444.627 542.987 506.016C1085.5 624 872.973 951.249 895.526 988.5V-178.707H13.7498Z" stroke="white" stroke-width="4"/>
</g>
<defs>
<linearGradient id="paint0_linear_39_75484" x1="674.321" y1="1001.21" x2="186.746" y2="-177.72" gradientUnits="userSpaceOnUse">
<stop stop-color="#BB5EB3"/>
<stop offset="0.260088" stop-color="#522BB1"/>
<stop offset="1" stop-color="#AC5691"/>
</linearGradient>
<clipPath id="clip0_39_75484">
<rect width="297" height="953" fill="white" transform="translate(329)"/>
</clipPath>
<clipPath id="clip1_39_75484">
<rect width="626" height="989" fill="white"/>
</clipPath>
</defs>
</svg>
