<svg width="1200" height="840" viewBox="0 0 1200 840" fill="none" xmlns="http://www.w3.org/2000/svg">
<rect width="1200" height="840" rx="24" fill="#5E409E"/>
<path d="M428.874 323.334H779.001L407.438 335.516H707.546" stroke="#00EEFD" stroke-width="5" stroke-linecap="round"/>
<path d="M368.003 248.576C365.443 248.576 363.075 248.128 360.898 247.232C358.755 246.336 356.867 245.088 355.235 243.488C353.603 241.888 352.339 240.032 351.443 237.92C350.547 235.776 350.099 233.472 350.099 231.008C350.099 228.512 350.547 226.208 351.443 224.096C352.339 221.984 353.587 220.144 355.187 218.576C356.787 216.976 358.659 215.744 360.803 214.88C362.979 213.984 365.347 213.536 367.907 213.536C370.435 213.536 372.771 213.984 374.915 214.88C377.091 215.744 378.979 216.976 380.579 218.576C382.211 220.144 383.475 222 384.371 224.144C385.267 226.256 385.715 228.56 385.715 231.056C385.715 233.52 385.267 235.824 384.371 237.968C383.475 240.08 382.227 241.936 380.627 243.536C379.027 245.104 377.139 246.336 374.963 247.232C372.819 248.128 370.499 248.576 368.003 248.576ZM367.907 241.712C369.923 241.712 371.683 241.264 373.187 240.368C374.723 239.472 375.907 238.224 376.739 236.624C377.571 234.992 377.987 233.12 377.987 231.008C377.987 229.408 377.747 227.968 377.267 226.688C376.787 225.376 376.099 224.256 375.203 223.328C374.307 222.368 373.235 221.648 371.987 221.168C370.771 220.656 369.411 220.4 367.907 220.4C365.891 220.4 364.115 220.848 362.579 221.744C361.075 222.608 359.907 223.84 359.075 225.44C358.243 227.008 357.827 228.864 357.827 231.008C357.827 232.608 358.067 234.064 358.547 235.376C359.027 236.688 359.699 237.824 360.562 238.784C361.459 239.712 362.531 240.432 363.779 240.944C365.027 241.456 366.403 241.712 367.907 241.712ZM395.538 248L387.474 224.672H394.674L399.666 241.616L397.554 241.664L403.074 224.672H409.026L414.594 241.664L412.434 241.616L417.474 224.672H424.674L416.61 248H410.61L405.186 231.872H407.01L401.49 248H395.538ZM442.922 248V234.704C442.922 233.488 442.538 232.512 441.77 231.776C441.034 231.008 440.09 230.624 438.938 230.624C438.138 230.624 437.434 230.8 436.826 231.152C436.218 231.472 435.738 231.952 435.386 232.592C435.034 233.2 434.858 233.904 434.858 234.704L432.026 233.312C432.026 231.488 432.426 229.888 433.226 228.512C434.026 227.136 435.13 226.08 436.538 225.344C437.978 224.576 439.594 224.192 441.386 224.192C443.114 224.192 444.634 224.608 445.946 225.44C447.29 226.24 448.346 227.312 449.114 228.656C449.882 230 450.266 231.472 450.266 233.072V248H442.922ZM427.514 248V224.672H434.858V248H427.514ZM454.983 253.76L458.487 247.232L460.647 246.608C460.423 247.088 460.151 247.488 459.831 247.808C459.511 248.096 459.143 248.24 458.727 248.24C457.799 248.24 456.951 247.856 456.183 247.088C455.415 246.32 455.031 245.36 455.031 244.208C455.031 242.96 455.447 241.888 456.279 240.992C457.143 240.096 458.199 239.648 459.447 239.648C460.631 239.648 461.655 240.096 462.519 240.992C463.415 241.856 463.863 242.928 463.863 244.208C463.863 244.72 463.767 245.312 463.575 245.984C463.383 246.656 462.999 247.536 462.423 248.624L458.535 255.728L454.983 253.76ZM486.213 248.576C484.837 248.576 483.477 248.4 482.133 248.048C480.821 247.696 479.589 247.2 478.437 246.56C477.317 245.888 476.357 245.12 475.557 244.256L479.733 240.032C480.501 240.864 481.413 241.52 482.469 242C483.525 242.448 484.677 242.672 485.925 242.672C486.789 242.672 487.445 242.544 487.893 242.288C488.373 242.032 488.613 241.68 488.613 241.232C488.613 240.656 488.325 240.224 487.749 239.936C487.205 239.616 486.501 239.344 485.637 239.12C484.773 238.864 483.861 238.592 482.901 238.304C481.941 238.016 481.029 237.616 480.165 237.104C479.301 236.592 478.597 235.888 478.053 234.992C477.509 234.064 477.237 232.896 477.237 231.488C477.237 229.984 477.621 228.688 478.389 227.6C479.157 226.48 480.245 225.6 481.653 224.96C483.061 224.32 484.709 224 486.597 224C488.581 224 490.405 224.352 492.069 225.056C493.765 225.728 495.141 226.736 496.197 228.08L492.021 232.304C491.285 231.44 490.453 230.832 489.525 230.48C488.629 230.128 487.749 229.952 486.885 229.952C486.053 229.952 485.429 230.08 485.013 230.336C484.597 230.56 484.389 230.896 484.389 231.344C484.389 231.824 484.661 232.208 485.205 232.496C485.749 232.784 486.453 233.04 487.317 233.264C488.181 233.488 489.093 233.76 490.053 234.08C491.013 234.4 491.925 234.832 492.789 235.376C493.653 235.92 494.357 236.656 494.901 237.584C495.445 238.48 495.717 239.664 495.717 241.136C495.717 243.408 494.853 245.216 493.125 246.56C491.429 247.904 489.125 248.576 486.213 248.576ZM513.141 248.48C511.573 248.48 510.133 248.176 508.821 247.568C507.509 246.96 506.437 246.128 505.605 245.072C504.773 243.984 504.293 242.752 504.165 241.376V231.536C504.293 230.16 504.773 228.912 505.605 227.792C506.437 226.672 507.509 225.792 508.821 225.152C510.133 224.512 511.573 224.192 513.141 224.192C515.349 224.192 517.301 224.72 518.997 225.776C520.725 226.832 522.069 228.272 523.029 230.096C524.021 231.92 524.517 234 524.517 236.336C524.517 238.672 524.021 240.752 523.029 242.576C522.069 244.4 520.725 245.84 518.997 246.896C517.301 247.952 515.349 248.48 513.141 248.48ZM511.797 241.856C512.853 241.856 513.765 241.616 514.533 241.136C515.333 240.656 515.957 240 516.405 239.168C516.853 238.336 517.077 237.392 517.077 236.336C517.077 235.248 516.853 234.288 516.405 233.456C515.957 232.624 515.333 231.984 514.533 231.536C513.765 231.056 512.869 230.816 511.845 230.816C510.821 230.816 509.909 231.056 509.109 231.536C508.341 231.984 507.733 232.624 507.285 233.456C506.837 234.288 506.613 235.248 506.613 236.336C506.613 237.392 506.821 238.336 507.237 239.168C507.685 240 508.309 240.656 509.109 241.136C509.909 241.616 510.805 241.856 511.797 241.856ZM499.701 257.84V224.672H507.045V230.672L505.845 236.336L506.949 242V257.84H499.701ZM539.768 248.528C537.24 248.528 534.984 248.016 533 246.992C531.048 245.936 529.512 244.48 528.392 242.624C527.272 240.768 526.712 238.672 526.712 236.336C526.712 234 527.256 231.92 528.344 230.096C529.464 228.24 530.968 226.784 532.856 225.728C534.744 224.672 536.872 224.144 539.24 224.144C541.544 224.144 543.576 224.64 545.336 225.632C547.096 226.624 548.472 228 549.464 229.76C550.488 231.52 551 233.536 551 235.808C551 236.224 550.968 236.672 550.904 237.152C550.872 237.6 550.792 238.128 550.664 238.736L530.552 238.784V233.744L547.544 233.696L544.376 235.808C544.344 234.464 544.136 233.36 543.752 232.496C543.368 231.6 542.792 230.928 542.024 230.48C541.288 230 540.376 229.76 539.288 229.76C538.136 229.76 537.128 230.032 536.264 230.576C535.432 231.088 534.776 231.824 534.296 232.784C533.848 233.744 533.624 234.912 533.624 236.288C533.624 237.664 533.864 238.848 534.344 239.84C534.856 240.8 535.56 241.552 536.456 242.096C537.384 242.608 538.472 242.864 539.72 242.864C540.872 242.864 541.912 242.672 542.84 242.288C543.768 241.872 544.584 241.264 545.288 240.464L549.32 244.496C548.168 245.84 546.776 246.848 545.144 247.52C543.512 248.192 541.72 248.528 539.768 248.528ZM569.953 248V234.704C569.953 233.488 569.569 232.512 568.801 231.776C568.065 231.008 567.121 230.624 565.969 230.624C565.169 230.624 564.465 230.8 563.857 231.152C563.249 231.472 562.769 231.952 562.417 232.592C562.065 233.2 561.889 233.904 561.889 234.704L559.057 233.312C559.057 231.488 559.457 229.888 560.257 228.512C561.057 227.136 562.161 226.08 563.569 225.344C565.009 224.576 566.625 224.192 568.417 224.192C570.145 224.192 571.665 224.608 572.977 225.44C574.321 226.24 575.377 227.312 576.145 228.656C576.913 230 577.297 231.472 577.297 233.072V248H569.953ZM554.545 248V224.672H561.889V248H554.545ZM591.95 248.48C589.742 248.48 587.774 247.952 586.046 246.896C584.35 245.84 583.006 244.4 582.014 242.576C581.054 240.752 580.574 238.672 580.574 236.336C580.574 234 581.054 231.92 582.014 230.096C583.006 228.272 584.35 226.832 586.046 225.776C587.774 224.72 589.742 224.192 591.95 224.192C593.55 224.192 594.99 224.496 596.27 225.104C597.582 225.712 598.654 226.56 599.486 227.648C600.35 228.704 600.83 229.92 600.926 231.296V241.136C600.83 242.512 600.366 243.76 599.534 244.88C598.702 245.968 597.63 246.848 596.318 247.52C595.006 248.16 593.55 248.48 591.95 248.48ZM593.246 241.856C594.302 241.856 595.214 241.632 595.982 241.184C596.75 240.704 597.358 240.048 597.806 239.216C598.254 238.384 598.478 237.424 598.478 236.336C598.478 235.248 598.254 234.304 597.806 233.504C597.39 232.672 596.782 232.016 595.982 231.536C595.214 231.056 594.318 230.816 593.294 230.816C592.27 230.816 591.358 231.056 590.558 231.536C589.79 232.016 589.166 232.672 588.686 233.504C588.238 234.336 588.014 235.28 588.014 236.336C588.014 237.392 588.238 238.336 588.686 239.168C589.134 240 589.758 240.656 590.558 241.136C591.358 241.616 592.254 241.856 593.246 241.856ZM605.39 248H598.19V241.712L599.294 236.048L598.046 230.384V213.152H605.39V248ZM610.561 253.76L614.065 247.232L616.225 246.608C616.001 247.088 615.729 247.488 615.409 247.808C615.089 248.096 614.721 248.24 614.305 248.24C613.377 248.24 612.529 247.856 611.761 247.088C610.993 246.32 610.609 245.36 610.609 244.208C610.609 242.96 611.025 241.888 611.857 240.992C612.721 240.096 613.777 239.648 615.025 239.648C616.209 239.648 617.233 240.096 618.097 240.992C618.993 241.856 619.441 242.928 619.441 244.208C619.441 244.72 619.345 245.312 619.153 245.984C618.961 246.656 618.577 247.536 618.001 248.624L614.113 255.728L610.561 253.76ZM643.039 248.48C640.895 248.48 638.975 247.952 637.279 246.896C635.615 245.84 634.287 244.4 633.295 242.576C632.335 240.752 631.855 238.672 631.855 236.336C631.855 234 632.335 231.92 633.295 230.096C634.287 228.272 635.615 226.832 637.279 225.776C638.975 224.72 640.895 224.192 643.039 224.192C644.607 224.192 646.015 224.496 647.263 225.104C648.543 225.712 649.583 226.56 650.383 227.648C651.183 228.704 651.631 229.92 651.727 231.296V241.376C651.631 242.752 651.183 243.984 650.383 245.072C649.615 246.128 648.591 246.96 647.311 247.568C646.031 248.176 644.607 248.48 643.039 248.48ZM644.527 241.856C646.095 241.856 647.359 241.344 648.319 240.32C649.279 239.264 649.759 237.936 649.759 236.336C649.759 235.248 649.535 234.288 649.087 233.456C648.671 232.624 648.063 231.984 647.263 231.536C646.495 231.056 645.599 230.816 644.575 230.816C643.551 230.816 642.639 231.056 641.839 231.536C641.071 231.984 640.447 232.624 639.967 233.456C639.519 234.288 639.295 235.248 639.295 236.336C639.295 237.392 639.519 238.336 639.967 239.168C640.415 240 641.039 240.656 641.839 241.136C642.639 241.616 643.535 241.856 644.527 241.856ZM649.471 248V241.712L650.575 236.048L649.471 230.384V224.672H656.671V248H649.471ZM677.25 248V234.704C677.25 233.488 676.866 232.512 676.098 231.776C675.362 231.008 674.418 230.624 673.266 230.624C672.466 230.624 671.762 230.8 671.154 231.152C670.546 231.472 670.066 231.952 669.714 232.592C669.362 233.2 669.186 233.904 669.186 234.704L666.354 233.312C666.354 231.488 666.754 229.888 667.554 228.512C668.354 227.136 669.458 226.08 670.866 225.344C672.306 224.576 673.922 224.192 675.714 224.192C677.442 224.192 678.962 224.608 680.274 225.44C681.618 226.24 682.674 227.312 683.442 228.656C684.21 230 684.594 231.472 684.594 233.072V248H677.25ZM661.842 248V224.672H669.186V248H661.842ZM699.247 248.48C697.039 248.48 695.071 247.952 693.343 246.896C691.647 245.84 690.303 244.4 689.311 242.576C688.351 240.752 687.871 238.672 687.871 236.336C687.871 234 688.351 231.92 689.311 230.096C690.303 228.272 691.647 226.832 693.343 225.776C695.071 224.72 697.039 224.192 699.247 224.192C700.847 224.192 702.287 224.496 703.567 225.104C704.879 225.712 705.951 226.56 706.783 227.648C707.647 228.704 708.127 229.92 708.223 231.296V241.136C708.127 242.512 707.663 243.76 706.831 244.88C705.999 245.968 704.927 246.848 703.615 247.52C702.303 248.16 700.847 248.48 699.247 248.48ZM700.543 241.856C701.599 241.856 702.511 241.632 703.279 241.184C704.047 240.704 704.655 240.048 705.103 239.216C705.551 238.384 705.775 237.424 705.775 236.336C705.775 235.248 705.551 234.304 705.103 233.504C704.687 232.672 704.079 232.016 703.279 231.536C702.511 231.056 701.615 230.816 700.591 230.816C699.567 230.816 698.655 231.056 697.855 231.536C697.087 232.016 696.463 232.672 695.983 233.504C695.535 234.336 695.311 235.28 695.311 236.336C695.311 237.392 695.535 238.336 695.983 239.168C696.431 240 697.055 240.656 697.855 241.136C698.655 241.616 699.551 241.856 700.543 241.856ZM712.687 248H705.487V241.712L706.591 236.048L705.343 230.384V213.152H712.687V248ZM735.494 248.576C734.118 248.576 732.758 248.4 731.414 248.048C730.102 247.696 728.87 247.2 727.718 246.56C726.598 245.888 725.638 245.12 724.838 244.256L729.014 240.032C729.782 240.864 730.694 241.52 731.75 242C732.806 242.448 733.958 242.672 735.206 242.672C736.07 242.672 736.726 242.544 737.174 242.288C737.654 242.032 737.894 241.68 737.894 241.232C737.894 240.656 737.606 240.224 737.03 239.936C736.486 239.616 735.782 239.344 734.918 239.12C734.054 238.864 733.142 238.592 732.182 238.304C731.222 238.016 730.31 237.616 729.446 237.104C728.582 236.592 727.878 235.888 727.334 234.992C726.79 234.064 726.518 232.896 726.518 231.488C726.518 229.984 726.902 228.688 727.67 227.6C728.438 226.48 729.526 225.6 730.934 224.96C732.342 224.32 733.99 224 735.878 224C737.862 224 739.686 224.352 741.35 225.056C743.046 225.728 744.422 226.736 745.478 228.08L741.302 232.304C740.566 231.44 739.734 230.832 738.806 230.48C737.91 230.128 737.03 229.952 736.166 229.952C735.334 229.952 734.71 230.08 734.294 230.336C733.878 230.56 733.67 230.896 733.67 231.344C733.67 231.824 733.942 232.208 734.486 232.496C735.03 232.784 735.734 233.04 736.598 233.264C737.462 233.488 738.374 233.76 739.334 234.08C740.294 234.4 741.206 234.832 742.07 235.376C742.934 235.92 743.638 236.656 744.182 237.584C744.726 238.48 744.998 239.664 744.998 241.136C744.998 243.408 744.134 245.216 742.406 246.56C740.71 247.904 738.406 248.576 735.494 248.576ZM760.215 248.528C757.815 248.528 755.639 248 753.687 246.944C751.767 245.856 750.247 244.384 749.127 242.528C748.007 240.672 747.447 238.592 747.447 236.288C747.447 233.984 748.007 231.92 749.127 230.096C750.247 228.272 751.767 226.832 753.687 225.776C755.607 224.688 757.783 224.144 760.215 224.144C762.647 224.144 764.823 224.672 766.743 225.728C768.663 226.784 770.183 228.24 771.303 230.096C772.423 231.92 772.983 233.984 772.983 236.288C772.983 238.592 772.423 240.672 771.303 242.528C770.183 244.384 768.663 245.856 766.743 246.944C764.823 248 762.647 248.528 760.215 248.528ZM760.215 241.856C761.271 241.856 762.199 241.632 762.999 241.184C763.799 240.704 764.407 240.048 764.823 239.216C765.271 238.352 765.495 237.376 765.495 236.288C765.495 235.2 765.271 234.256 764.823 233.456C764.375 232.624 763.751 231.984 762.951 231.536C762.183 231.056 761.271 230.816 760.215 230.816C759.191 230.816 758.279 231.056 757.479 231.536C756.679 231.984 756.055 232.624 755.607 233.456C755.159 234.288 754.935 235.248 754.935 236.336C754.935 237.392 755.159 238.352 755.607 239.216C756.055 240.048 756.679 240.704 757.479 241.184C758.279 241.632 759.191 241.856 760.215 241.856ZM787.919 248.528C785.519 248.528 783.343 248 781.391 246.944C779.439 245.888 777.903 244.432 776.783 242.576C775.663 240.72 775.103 238.64 775.103 236.336C775.103 234 775.663 231.92 776.783 230.096C777.935 228.24 779.487 226.784 781.439 225.728C783.391 224.672 785.583 224.144 788.015 224.144C789.839 224.144 791.503 224.464 793.007 225.104C794.543 225.712 795.903 226.64 797.087 227.888L792.383 232.592C791.839 231.984 791.199 231.536 790.463 231.248C789.759 230.96 788.943 230.816 788.015 230.816C786.959 230.816 786.015 231.056 785.183 231.536C784.383 231.984 783.743 232.624 783.263 233.456C782.815 234.256 782.591 235.2 782.591 236.288C782.591 237.376 782.815 238.336 783.263 239.168C783.743 240 784.399 240.656 785.231 241.136C786.063 241.616 786.991 241.856 788.015 241.856C788.975 241.856 789.823 241.696 790.559 241.376C791.327 241.024 791.983 240.544 792.527 239.936L797.183 244.64C795.967 245.92 794.591 246.896 793.055 247.568C791.519 248.208 789.807 248.528 787.919 248.528ZM800.451 248V224.672H807.795V248H800.451ZM804.147 221.456C802.995 221.456 802.035 221.072 801.267 220.304C800.531 219.504 800.163 218.544 800.163 217.424C800.163 216.272 800.531 215.312 801.267 214.544C802.035 213.776 802.995 213.392 804.147 213.392C805.299 213.392 806.243 213.776 806.979 214.544C807.715 215.312 808.083 216.272 808.083 217.424C808.083 218.544 807.715 219.504 806.979 220.304C806.243 221.072 805.299 221.456 804.147 221.456ZM822.711 248.48C820.567 248.48 818.647 247.952 816.951 246.896C815.287 245.84 813.959 244.4 812.967 242.576C812.007 240.752 811.527 238.672 811.527 236.336C811.527 234 812.007 231.92 812.967 230.096C813.959 228.272 815.287 226.832 816.951 225.776C818.647 224.72 820.567 224.192 822.711 224.192C824.279 224.192 825.687 224.496 826.935 225.104C828.215 225.712 829.255 226.56 830.055 227.648C830.855 228.704 831.303 229.92 831.399 231.296V241.376C831.303 242.752 830.855 243.984 830.055 245.072C829.287 246.128 828.263 246.96 826.983 247.568C825.703 248.176 824.279 248.48 822.711 248.48ZM824.199 241.856C825.767 241.856 827.031 241.344 827.991 240.32C828.951 239.264 829.431 237.936 829.431 236.336C829.431 235.248 829.207 234.288 828.759 233.456C828.343 232.624 827.735 231.984 826.935 231.536C826.167 231.056 825.271 230.816 824.247 230.816C823.223 230.816 822.311 231.056 821.511 231.536C820.743 231.984 820.119 232.624 819.639 233.456C819.191 234.288 818.967 235.248 818.967 236.336C818.967 237.392 819.191 238.336 819.639 239.168C820.087 240 820.711 240.656 821.511 241.136C822.311 241.616 823.207 241.856 824.199 241.856ZM829.143 248V241.712L830.247 236.048L829.143 230.384V224.672H836.343V248H829.143ZM841.514 248V213.152H848.858V248H841.514ZM408.242 308.48C406.098 308.48 404.178 307.952 402.482 306.896C400.818 305.84 399.49 304.4 398.498 302.576C397.538 300.752 397.058 298.672 397.058 296.336C397.058 294 397.538 291.92 398.498 290.096C399.49 288.272 400.818 286.832 402.482 285.776C404.178 284.72 406.098 284.192 408.242 284.192C409.81 284.192 411.218 284.496 412.466 285.104C413.746 285.712 414.786 286.56 415.586 287.648C416.386 288.704 416.834 289.92 416.93 291.296V301.376C416.834 302.752 416.386 303.984 415.586 305.072C414.818 306.128 413.794 306.96 412.514 307.568C411.234 308.176 409.81 308.48 408.242 308.48ZM409.73 301.856C411.298 301.856 412.562 301.344 413.522 300.32C414.482 299.264 414.962 297.936 414.962 296.336C414.962 295.248 414.738 294.288 414.29 293.456C413.874 292.624 413.266 291.984 412.466 291.536C411.698 291.056 410.802 290.816 409.778 290.816C408.754 290.816 407.842 291.056 407.042 291.536C406.274 291.984 405.65 292.624 405.17 293.456C404.722 294.288 404.498 295.248 404.498 296.336C404.498 297.392 404.722 298.336 405.17 299.168C405.618 300 406.242 300.656 407.042 301.136C407.842 301.616 408.738 301.856 409.73 301.856ZM414.674 308V301.712L415.778 296.048L414.674 290.384V284.672H421.874V308H414.674ZM442.453 308V294.704C442.453 293.488 442.069 292.512 441.301 291.776C440.565 291.008 439.621 290.624 438.469 290.624C437.669 290.624 436.965 290.8 436.357 291.152C435.749 291.472 435.269 291.952 434.917 292.592C434.565 293.2 434.389 293.904 434.389 294.704L431.557 293.312C431.557 291.488 431.957 289.888 432.757 288.512C433.557 287.136 434.661 286.08 436.069 285.344C437.509 284.576 439.125 284.192 440.917 284.192C442.645 284.192 444.165 284.608 445.477 285.44C446.821 286.24 447.877 287.312 448.645 288.656C449.413 290 449.797 291.472 449.797 293.072V308H442.453ZM427.045 308V284.672H434.389V308H427.045ZM461.714 308.096L452.114 284.672H460.034L466.13 303.248H463.202L469.442 284.672H477.362L467.378 308.096H461.714ZM455.714 317.84L462.722 302.72L467.378 308.096L463.25 317.84H455.714ZM483.092 308V275.024H490.436V308H483.092ZM477.812 290.912V284.672H495.716V290.912H477.812ZM498.951 308V284.672H506.295V308H498.951ZM502.647 281.456C501.495 281.456 500.535 281.072 499.767 280.304C499.031 279.504 498.663 278.544 498.663 277.424C498.663 276.272 499.031 275.312 499.767 274.544C500.535 273.776 501.495 273.392 502.647 273.392C503.799 273.392 504.743 273.776 505.479 274.544C506.215 275.312 506.583 276.272 506.583 277.424C506.583 278.544 506.215 279.504 505.479 280.304C504.743 281.072 503.799 281.456 502.647 281.456ZM511.467 308V284.672H518.811V308H511.467ZM526.395 308V294.368C526.395 293.184 526.027 292.272 525.291 291.632C524.587 290.96 523.707 290.624 522.651 290.624C521.915 290.624 521.259 290.784 520.683 291.104C520.107 291.392 519.643 291.808 519.291 292.352C518.971 292.896 518.811 293.568 518.811 294.368L515.979 293.12C515.979 291.264 516.379 289.68 517.179 288.368C517.979 287.024 519.067 286 520.443 285.296C521.819 284.56 523.371 284.192 525.099 284.192C526.731 284.192 528.187 284.56 529.467 285.296C530.779 286.032 531.819 287.056 532.587 288.368C533.355 289.68 533.739 291.248 533.739 293.072V308H526.395ZM541.323 308V294.368C541.323 293.184 540.955 292.272 540.219 291.632C539.515 290.96 538.635 290.624 537.579 290.624C536.843 290.624 536.187 290.784 535.611 291.104C535.035 291.392 534.571 291.808 534.219 292.352C533.899 292.896 533.739 293.568 533.739 294.368L529.515 293.792C529.579 291.808 530.043 290.112 530.907 288.704C531.803 287.264 532.971 286.16 534.411 285.392C535.883 284.592 537.531 284.192 539.355 284.192C541.147 284.192 542.731 284.576 544.107 285.344C545.515 286.08 546.619 287.152 547.419 288.56C548.251 289.936 548.667 291.6 548.667 293.552V308H541.323ZM564.893 308.528C562.365 308.528 560.109 308.016 558.125 306.992C556.173 305.936 554.637 304.48 553.517 302.624C552.397 300.768 551.837 298.672 551.837 296.336C551.837 294 552.381 291.92 553.469 290.096C554.589 288.24 556.093 286.784 557.981 285.728C559.869 284.672 561.997 284.144 564.365 284.144C566.669 284.144 568.701 284.64 570.461 285.632C572.221 286.624 573.597 288 574.589 289.76C575.613 291.52 576.125 293.536 576.125 295.808C576.125 296.224 576.093 296.672 576.029 297.152C575.997 297.6 575.917 298.128 575.789 298.736L555.677 298.784V293.744L572.669 293.696L569.501 295.808C569.469 294.464 569.261 293.36 568.877 292.496C568.493 291.6 567.917 290.928 567.149 290.48C566.413 290 565.501 289.76 564.413 289.76C563.261 289.76 562.253 290.032 561.389 290.576C560.557 291.088 559.901 291.824 559.421 292.784C558.973 293.744 558.749 294.912 558.749 296.288C558.749 297.664 558.989 298.848 559.469 299.84C559.981 300.8 560.685 301.552 561.581 302.096C562.509 302.608 563.597 302.864 564.845 302.864C565.997 302.864 567.037 302.672 567.965 302.288C568.893 301.872 569.709 301.264 570.413 300.464L574.445 304.496C573.293 305.84 571.901 306.848 570.269 307.52C568.637 308.192 566.845 308.528 564.893 308.528ZM598.555 308.48C596.411 308.48 594.491 307.952 592.795 306.896C591.131 305.84 589.803 304.4 588.811 302.576C587.851 300.752 587.371 298.672 587.371 296.336C587.371 294 587.851 291.92 588.811 290.096C589.803 288.272 591.131 286.832 592.795 285.776C594.491 284.72 596.411 284.192 598.555 284.192C600.123 284.192 601.531 284.496 602.779 285.104C604.059 285.712 605.099 286.56 605.899 287.648C606.699 288.704 607.147 289.92 607.243 291.296V301.376C607.147 302.752 606.699 303.984 605.899 305.072C605.131 306.128 604.107 306.96 602.827 307.568C601.547 308.176 600.123 308.48 598.555 308.48ZM600.043 301.856C601.611 301.856 602.875 301.344 603.835 300.32C604.795 299.264 605.275 297.936 605.275 296.336C605.275 295.248 605.051 294.288 604.603 293.456C604.187 292.624 603.579 291.984 602.779 291.536C602.011 291.056 601.115 290.816 600.091 290.816C599.067 290.816 598.155 291.056 597.355 291.536C596.587 291.984 595.963 292.624 595.483 293.456C595.035 294.288 594.811 295.248 594.811 296.336C594.811 297.392 595.035 298.336 595.483 299.168C595.931 300 596.555 300.656 597.355 301.136C598.155 301.616 599.051 301.856 600.043 301.856ZM604.987 308V301.712L606.091 296.048L604.987 290.384V284.672H612.187V308H604.987ZM632.766 308V294.704C632.766 293.488 632.382 292.512 631.614 291.776C630.878 291.008 629.934 290.624 628.782 290.624C627.982 290.624 627.278 290.8 626.67 291.152C626.062 291.472 625.582 291.952 625.23 292.592C624.878 293.2 624.702 293.904 624.702 294.704L621.87 293.312C621.87 291.488 622.27 289.888 623.07 288.512C623.87 287.136 624.974 286.08 626.382 285.344C627.822 284.576 629.438 284.192 631.23 284.192C632.958 284.192 634.478 284.608 635.79 285.44C637.134 286.24 638.19 287.312 638.958 288.656C639.726 290 640.11 291.472 640.11 293.072V308H632.766ZM617.358 308V284.672H624.702V308H617.358ZM652.026 308.096L642.426 284.672H650.346L656.442 303.248H653.514L659.754 284.672H667.674L657.69 308.096H652.026ZM646.026 317.84L653.034 302.72L657.69 308.096L653.562 317.84H646.026ZM674.82 308L666.756 284.672H673.956L678.948 301.616L676.836 301.664L682.356 284.672H688.308L693.876 301.664L691.716 301.616L696.756 284.672H703.956L695.892 308H689.892L684.468 291.872H686.292L680.772 308H674.82ZM722.203 308V294.704C722.203 293.488 721.819 292.512 721.051 291.776C720.315 291.008 719.371 290.624 718.219 290.624C717.419 290.624 716.715 290.8 716.107 291.152C715.499 291.472 715.019 291.952 714.667 292.592C714.315 293.2 714.139 293.904 714.139 294.704L711.307 293.312C711.307 291.488 711.691 289.888 712.459 288.512C713.227 287.136 714.299 286.08 715.675 285.344C717.051 284.576 718.635 284.192 720.427 284.192C722.251 284.192 723.851 284.576 725.227 285.344C726.603 286.08 727.659 287.12 728.395 288.464C729.163 289.776 729.547 291.312 729.547 293.072V308H722.203ZM706.795 308V273.152H714.139V308H706.795ZM745.784 308.528C743.256 308.528 741 308.016 739.016 306.992C737.064 305.936 735.528 304.48 734.408 302.624C733.288 300.768 732.728 298.672 732.728 296.336C732.728 294 733.272 291.92 734.36 290.096C735.48 288.24 736.984 286.784 738.872 285.728C740.76 284.672 742.888 284.144 745.256 284.144C747.56 284.144 749.592 284.64 751.352 285.632C753.112 286.624 754.488 288 755.48 289.76C756.504 291.52 757.016 293.536 757.016 295.808C757.016 296.224 756.984 296.672 756.92 297.152C756.888 297.6 756.808 298.128 756.68 298.736L736.568 298.784V293.744L753.56 293.696L750.392 295.808C750.36 294.464 750.152 293.36 749.768 292.496C749.384 291.6 748.808 290.928 748.04 290.48C747.304 290 746.392 289.76 745.304 289.76C744.152 289.76 743.144 290.032 742.28 290.576C741.448 291.088 740.792 291.824 740.312 292.784C739.864 293.744 739.64 294.912 739.64 296.288C739.64 297.664 739.88 298.848 740.36 299.84C740.872 300.8 741.576 301.552 742.472 302.096C743.4 302.608 744.488 302.864 745.736 302.864C746.888 302.864 747.928 302.672 748.856 302.288C749.784 301.872 750.6 301.264 751.304 300.464L755.336 304.496C754.184 305.84 752.792 306.848 751.16 307.52C749.528 308.192 747.736 308.528 745.784 308.528ZM760.561 308V284.672H767.905V308H760.561ZM767.905 295.184L764.833 292.784C765.441 290.064 766.465 287.952 767.905 286.448C769.345 284.944 771.345 284.192 773.905 284.192C775.025 284.192 776.001 284.368 776.833 284.72C777.697 285.04 778.449 285.552 779.089 286.256L774.721 291.776C774.401 291.424 774.001 291.152 773.521 290.96C773.041 290.768 772.497 290.672 771.889 290.672C770.673 290.672 769.697 291.056 768.961 291.824C768.257 292.56 767.905 293.68 767.905 295.184ZM791.909 308.528C789.381 308.528 787.125 308.016 785.141 306.992C783.189 305.936 781.653 304.48 780.533 302.624C779.413 300.768 778.853 298.672 778.853 296.336C778.853 294 779.397 291.92 780.485 290.096C781.605 288.24 783.109 286.784 784.997 285.728C786.885 284.672 789.013 284.144 791.381 284.144C793.685 284.144 795.717 284.64 797.477 285.632C799.237 286.624 800.613 288 801.605 289.76C802.629 291.52 803.141 293.536 803.141 295.808C803.141 296.224 803.109 296.672 803.045 297.152C803.013 297.6 802.933 298.128 802.805 298.736L782.693 298.784V293.744L799.685 293.696L796.517 295.808C796.485 294.464 796.277 293.36 795.893 292.496C795.509 291.6 794.933 290.928 794.165 290.48C793.429 290 792.517 289.76 791.429 289.76C790.277 289.76 789.269 290.032 788.405 290.576C787.573 291.088 786.917 291.824 786.437 292.784C785.989 293.744 785.765 294.912 785.765 296.288C785.765 297.664 786.005 298.848 786.485 299.84C786.997 300.8 787.701 301.552 788.597 302.096C789.525 302.608 790.613 302.864 791.861 302.864C793.013 302.864 794.053 302.672 794.981 302.288C795.909 301.872 796.725 301.264 797.429 300.464L801.461 304.496C800.309 305.84 798.917 306.848 797.285 307.52C795.653 308.192 793.861 308.528 791.909 308.528Z" fill="white"/>
</svg>
