<svg width="296" height="109" viewBox="0 0 296 109" fill="none" xmlns="http://www.w3.org/2000/svg">
<path d="M-2 0H298.902V92.2256C298.902 101.458 291.418 108.942 282.186 108.942H14.7168C5.48437 108.942 -2 101.458 -2 92.2256V0Z" fill="#222222"/>
<rect width="300.902" height="71.8822" transform="translate(-2)" fill="#222222"/>
<g clip-path="url(#clip0_1666_74892)">
<path fill-rule="evenodd" clip-rule="evenodd" d="M14.7188 48.4698C14.7188 47.9159 15.1678 47.4668 15.7218 47.4668H33.7759C34.3298 47.4668 34.7789 47.9159 34.7789 48.4698C34.7789 49.0238 34.3298 49.4728 33.7759 49.4728H15.7218C15.1678 49.4728 14.7188 49.0238 14.7188 48.4698Z" fill="white"/>
<path fill-rule="evenodd" clip-rule="evenodd" d="M14.7188 41.9034C14.7188 41.3495 15.1678 40.9004 15.7218 40.9004H33.7759C34.3298 40.9004 34.7789 41.3495 34.7789 41.9034C34.7789 42.4573 34.3298 42.9064 33.7759 42.9064H15.7218C15.1678 42.9064 14.7188 42.4573 14.7188 41.9034Z" fill="white"/>
<path fill-rule="evenodd" clip-rule="evenodd" d="M14.7188 55.0343C14.7188 54.4803 15.1678 54.0312 15.7218 54.0312H33.7759C34.3298 54.0312 34.7789 54.4803 34.7789 55.0343C34.7789 55.5882 34.3298 56.0373 33.7759 56.0373H15.7218C15.1678 56.0373 14.7188 55.5882 14.7188 55.0343Z" fill="white"/>
</g>
<path d="M57.6107 53.9785V42.7114H59.1821V53.9785H57.6107ZM53.6656 43.8147V42.3771H63.1106V43.8147H53.6656ZM66.4734 54.1457C65.6933 54.1457 64.9912 53.9618 64.3671 53.594C63.743 53.2263 63.247 52.7303 62.8793 52.1062C62.5115 51.471 62.3276 50.7633 62.3276 49.9832C62.3276 49.2142 62.5115 48.5233 62.8793 47.9103C63.247 47.2862 63.743 46.7903 64.3671 46.4225C64.9912 46.0548 65.6933 45.8709 66.4734 45.8709C67.2424 45.8709 67.9389 46.0548 68.563 46.4225C69.1982 46.7791 69.6997 47.2695 70.0675 47.8936C70.4353 48.5177 70.6191 49.2142 70.6191 49.9832C70.6191 50.7633 70.4353 51.471 70.0675 52.1062C69.6997 52.7303 69.1982 53.2263 68.563 53.594C67.9389 53.9618 67.2424 54.1457 66.4734 54.1457ZM66.4734 52.6913C66.9749 52.6913 67.4207 52.5743 67.8107 52.3403C68.2008 52.1062 68.5073 51.7886 68.7301 51.3874C68.953 50.9751 69.0645 50.507 69.0645 49.9832C69.0645 49.4706 68.9475 49.0136 68.7134 48.6124C68.4905 48.2112 68.1841 47.8992 67.794 47.6763C67.4151 47.4422 66.9749 47.3252 66.4734 47.3252C65.9719 47.3252 65.5261 47.4422 65.136 47.6763C64.746 47.8992 64.4395 48.2112 64.2166 48.6124C63.9937 49.0136 63.8823 49.4706 63.8823 49.9832C63.8823 50.507 63.9937 50.9751 64.2166 51.3874C64.4395 51.7886 64.746 52.1062 65.136 52.3403C65.5261 52.5743 65.9719 52.6913 66.4734 52.6913ZM74.6936 53.9785L71.5508 46.038H73.1222L75.3957 52.2233H74.8942L77.151 46.038H78.0203L80.277 52.2233H79.7755L82.049 46.038H83.6204L80.4943 53.9785H79.6083L77.3181 47.9772H77.8698L75.5629 53.9785H74.6936ZM90.9089 53.9785V49.348C90.9089 48.7462 90.7194 48.2502 90.3405 47.8602C89.9616 47.4701 89.4713 47.2751 88.8695 47.2751C88.4683 47.2751 88.1116 47.3642 87.7996 47.5425C87.4875 47.7209 87.2424 47.966 87.064 48.2781C86.8857 48.5901 86.7966 48.9468 86.7966 49.348L86.178 48.9969C86.178 48.3951 86.3118 47.8602 86.5793 47.3921C86.8467 46.924 87.2201 46.5563 87.6993 46.2888C88.1785 46.0102 88.719 45.8709 89.3208 45.8709C89.9226 45.8709 90.452 46.0213 90.9089 46.3222C91.377 46.6231 91.7447 47.0188 92.0122 47.5091C92.2797 47.9883 92.4134 48.501 92.4134 49.0471V53.9785H90.9089ZM85.2921 53.9785V46.038H86.7966V53.9785H85.2921ZM98.4624 54.1457C97.6712 54.1457 96.9579 53.9674 96.3227 53.6107C95.6874 53.243 95.1859 52.747 94.8182 52.123C94.4504 51.4989 94.2665 50.7912 94.2665 49.9999C94.2665 49.2198 94.4448 48.5177 94.8014 47.8936C95.1692 47.2695 95.6596 46.7791 96.2725 46.4225C96.8966 46.0548 97.5931 45.8709 98.3621 45.8709C99.0977 45.8709 99.744 46.038 100.301 46.3724C100.87 46.7067 101.31 47.1692 101.622 47.7599C101.945 48.3505 102.107 49.0192 102.107 49.7659C102.107 49.8773 102.101 49.9999 102.09 50.1337C102.079 50.2562 102.057 50.4011 102.023 50.5683H95.3197V49.3145H101.221L100.669 49.7993C100.669 49.2644 100.574 48.813 100.385 48.4453C100.195 48.0663 99.9279 47.7766 99.5824 47.576C99.237 47.3642 98.819 47.2584 98.3287 47.2584C97.816 47.2584 97.3647 47.3698 96.9746 47.5927C96.5846 47.8156 96.2837 48.1276 96.0719 48.5288C95.8602 48.93 95.7543 49.4037 95.7543 49.9498C95.7543 50.507 95.8657 50.9974 96.0886 51.4208C96.3115 51.8332 96.6291 52.1564 97.0415 52.3904C97.4538 52.6133 97.9275 52.7248 98.4624 52.7248C98.9082 52.7248 99.315 52.6467 99.6827 52.4907C100.062 52.3347 100.385 52.1007 100.652 51.7886L101.622 52.7749C101.243 53.2207 100.775 53.5606 100.218 53.7946C99.6716 54.0287 99.0865 54.1457 98.4624 54.1457ZM107.575 54.1457C106.661 54.1457 105.881 53.9785 105.235 53.6442C104.589 53.3098 104.015 52.8251 103.513 52.1898L104.583 51.1199C104.951 51.6326 105.374 52.0226 105.853 52.2901C106.333 52.5464 106.923 52.6746 107.625 52.6746C108.316 52.6746 108.868 52.5242 109.28 52.2233C109.704 51.9223 109.916 51.51 109.916 50.9862C109.916 50.5516 109.815 50.2005 109.615 49.933C109.414 49.6656 109.141 49.4483 108.796 49.2811C108.461 49.1028 108.094 48.9468 107.692 48.813C107.291 48.6681 106.89 48.5177 106.489 48.3617C106.087 48.1945 105.72 47.9939 105.385 47.7599C105.051 47.5147 104.778 47.1971 104.566 46.807C104.366 46.4169 104.265 45.9266 104.265 45.3359C104.265 44.6784 104.421 44.1212 104.733 43.6642C105.057 43.1962 105.491 42.8396 106.037 42.5944C106.595 42.338 107.219 42.2099 107.91 42.2099C108.667 42.2099 109.347 42.3603 109.949 42.6612C110.551 42.951 111.041 43.3355 111.42 43.8147L110.35 44.8846C110.005 44.4834 109.631 44.1825 109.23 43.9819C108.84 43.7813 108.389 43.681 107.876 43.681C107.252 43.681 106.756 43.8203 106.388 44.0989C106.021 44.3664 105.837 44.7453 105.837 45.2356C105.837 45.6257 105.937 45.9433 106.138 46.1885C106.349 46.4225 106.622 46.6231 106.957 46.7903C107.291 46.9575 107.659 47.1135 108.06 47.2584C108.472 47.3921 108.879 47.5425 109.28 47.7097C109.682 47.8769 110.049 48.0886 110.384 48.345C110.718 48.6013 110.986 48.9356 111.186 49.348C111.398 49.7492 111.504 50.2562 111.504 50.8692C111.504 51.8945 111.147 52.6969 110.434 53.2764C109.732 53.8559 108.779 54.1457 107.575 54.1457ZM116.968 54.1457C116.232 54.1457 115.569 53.9674 114.978 53.6107C114.388 53.243 113.92 52.747 113.574 52.123C113.24 51.4989 113.073 50.7968 113.073 50.0166C113.073 49.2365 113.24 48.5344 113.574 47.9103C113.92 47.2862 114.388 46.7903 114.978 46.4225C115.569 46.0548 116.227 45.8709 116.951 45.8709C117.564 45.8709 118.104 45.999 118.572 46.2554C119.052 46.5005 119.431 46.846 119.709 47.2918C119.999 47.7264 120.161 48.2335 120.194 48.813V51.2035C120.161 51.7719 119.999 52.279 119.709 52.7248C119.431 53.1705 119.052 53.5216 118.572 53.7779C118.104 54.0231 117.569 54.1457 116.968 54.1457ZM117.202 52.7248C117.948 52.7248 118.55 52.474 119.007 51.9725C119.464 51.4599 119.692 50.8079 119.692 50.0166C119.692 49.4706 119.587 48.9969 119.375 48.5957C119.174 48.1834 118.885 47.8657 118.506 47.6428C118.138 47.4088 117.703 47.2918 117.202 47.2918C116.7 47.2918 116.254 47.4088 115.864 47.6428C115.485 47.8769 115.185 48.2001 114.962 48.6124C114.739 49.0136 114.627 49.4761 114.627 49.9999C114.627 50.5349 114.739 51.0085 114.962 51.4208C115.185 51.822 115.485 52.1397 115.864 52.3737C116.254 52.6077 116.7 52.7248 117.202 52.7248ZM119.609 57.3052V51.9892L119.876 50.0501L119.609 48.1276V46.038H121.113V57.3052H119.609ZM126.847 54.1457C126.201 54.1457 125.616 54.0008 125.092 53.711C124.58 53.4101 124.178 52.9978 123.889 52.474C123.599 51.9502 123.454 51.3428 123.454 50.6519V46.038H124.958V50.585C124.958 51.0196 125.031 51.3986 125.176 51.7217C125.332 52.0338 125.555 52.2734 125.844 52.4406C126.134 52.6077 126.474 52.6913 126.864 52.6913C127.455 52.6913 127.917 52.5074 128.252 52.1397C128.586 51.7608 128.753 51.2425 128.753 50.585V46.038H130.258V50.6519C130.258 51.3428 130.113 51.9502 129.823 52.474C129.533 52.9978 129.132 53.4101 128.619 53.711C128.118 54.0008 127.527 54.1457 126.847 54.1457ZM135.985 54.1457C135.261 54.1457 134.603 53.9674 134.013 53.6107C133.422 53.243 132.954 52.747 132.608 52.123C132.274 51.4989 132.107 50.7968 132.107 50.0166C132.107 49.2365 132.274 48.5344 132.608 47.9103C132.954 47.2862 133.416 46.7903 133.996 46.4225C134.587 46.0548 135.25 45.8709 135.985 45.8709C136.587 45.8709 137.122 45.999 137.59 46.2554C138.069 46.5005 138.454 46.846 138.744 47.2918C139.033 47.7264 139.195 48.2335 139.228 48.813V51.2035C139.195 51.7719 139.033 52.279 138.744 52.7248C138.465 53.1705 138.086 53.5216 137.607 53.7779C137.139 54.0231 136.598 54.1457 135.985 54.1457ZM136.236 52.7248C136.983 52.7248 137.584 52.474 138.041 51.9725C138.498 51.4599 138.727 50.8079 138.727 50.0166C138.727 49.4706 138.621 48.9969 138.409 48.5957C138.209 48.1834 137.919 47.8657 137.54 47.6428C137.161 47.4088 136.721 47.2918 136.219 47.2918C135.718 47.2918 135.272 47.4088 134.882 47.6428C134.503 47.8769 134.202 48.2001 133.979 48.6124C133.767 49.0136 133.662 49.4761 133.662 49.9999C133.662 50.5349 133.767 51.0085 133.979 51.4208C134.202 51.822 134.509 52.1397 134.899 52.3737C135.289 52.6077 135.734 52.7248 136.236 52.7248ZM138.626 53.9785V51.8388L138.911 49.8996L138.626 47.9772V46.038H140.148V53.9785H138.626ZM142.672 53.9785V46.038H144.177V53.9785H142.672ZM144.177 49.4483L143.609 49.1975C143.609 48.1834 143.843 47.3754 144.311 46.7736C144.779 46.1718 145.453 45.8709 146.333 45.8709C146.735 45.8709 147.097 45.9433 147.42 46.0882C147.743 46.2219 148.044 46.4504 148.323 46.7736L147.336 47.7933C147.169 47.615 146.985 47.4868 146.785 47.4088C146.584 47.3308 146.35 47.2918 146.083 47.2918C145.525 47.2918 145.069 47.4701 144.712 47.8267C144.355 48.1834 144.177 48.7239 144.177 49.4483ZM153.133 54.1457C152.342 54.1457 151.628 53.9674 150.993 53.6107C150.358 53.243 149.856 52.747 149.489 52.123C149.121 51.4989 148.937 50.7912 148.937 49.9999C148.937 49.2198 149.115 48.5177 149.472 47.8936C149.84 47.2695 150.33 46.7791 150.943 46.4225C151.567 46.0548 152.264 45.8709 153.033 45.8709C153.768 45.8709 154.415 46.038 154.972 46.3724C155.54 46.7067 155.98 47.1692 156.292 47.7599C156.616 48.3505 156.777 49.0192 156.777 49.7659C156.777 49.8773 156.772 49.9999 156.76 50.1337C156.749 50.2562 156.727 50.4011 156.694 50.5683H149.99V49.3145H155.891L155.34 49.7993C155.34 49.2644 155.245 48.813 155.055 48.4453C154.866 48.0663 154.598 47.7766 154.253 47.576C153.907 47.3642 153.49 47.2584 152.999 47.2584C152.487 47.2584 152.035 47.3698 151.645 47.5927C151.255 47.8156 150.954 48.1276 150.742 48.5288C150.531 48.93 150.425 49.4037 150.425 49.9498C150.425 50.507 150.536 50.9974 150.759 51.4208C150.982 51.8332 151.3 52.1564 151.712 52.3904C152.124 52.6133 152.598 52.7248 153.133 52.7248C153.579 52.7248 153.985 52.6467 154.353 52.4907C154.732 52.3347 155.055 52.1007 155.323 51.7886L156.292 52.7749C155.913 53.2207 155.445 53.5606 154.888 53.7946C154.342 54.0287 153.757 54.1457 153.133 54.1457Z" fill="white"/>
<path fill-rule="evenodd" clip-rule="evenodd" d="M197.871 48.0141C198.517 46.4112 199.774 45.1309 201.365 44.4548C202.956 43.7787 204.75 43.7623 206.353 44.4091C207.956 45.0559 209.236 46.313 209.912 47.9037C210.588 49.4945 210.605 51.2887 209.958 52.8916C209.311 54.4945 208.054 55.7748 206.463 56.4509C204.873 57.127 203.078 57.1434 201.476 56.4966C199.873 55.8498 198.592 54.5927 197.916 53.002C197.24 51.4112 197.224 49.617 197.871 48.0141ZM202.019 45.9933C200.836 46.496 199.902 47.4479 199.421 48.6396C198.94 49.8314 198.952 51.1654 199.455 52.3481C199.957 53.5309 200.909 54.4655 202.101 54.9464C203.293 55.4273 204.627 55.4151 205.81 54.9124C206.992 54.4097 207.927 53.4578 208.408 52.2661C208.889 51.0743 208.877 49.7403 208.374 48.5576C207.871 47.3748 206.919 46.4402 205.728 45.9593C204.536 45.4784 203.202 45.4906 202.019 45.9933Z" fill="white"/>
<path fill-rule="evenodd" clip-rule="evenodd" d="M207.339 53.8776C207.665 53.5512 208.194 53.5512 208.521 53.8777L212.927 58.2846C213.253 58.6111 213.253 59.1403 212.927 59.4667C212.6 59.7931 212.071 59.793 211.745 59.4666L207.339 55.0596C207.012 54.7332 207.012 54.204 207.339 53.8776Z" fill="white"/>
<path fill-rule="evenodd" clip-rule="evenodd" d="M241.436 44.3026C241.436 43.841 241.062 43.4668 240.6 43.4668C240.138 43.4668 239.764 43.841 239.764 44.3026V45.193C238.356 45.3768 237.038 46.0203 236.022 47.0358C234.807 48.2506 234.125 49.8982 234.125 51.6162C234.125 54.331 233.49 56.4282 233.071 57.1537C232.943 57.3754 232.875 57.6268 232.875 57.8828C232.875 58.1388 232.941 58.3905 233.069 58.6126C233.196 58.8347 233.38 59.0195 233.601 59.1485C233.822 59.2775 234.073 59.3462 234.329 59.3478H237.363C237.511 59.9212 237.81 60.4501 238.236 60.876C238.863 61.503 239.713 61.8553 240.6 61.8553C241.487 61.8553 242.337 61.503 242.964 60.876C243.39 60.4501 243.689 59.9212 243.837 59.3478H246.872L246.874 59.3478C247.131 59.3468 247.382 59.2786 247.604 59.1499C247.826 59.0211 248.01 58.8364 248.137 58.6142C248.265 58.392 248.332 58.1401 248.332 57.8837C248.332 57.6274 248.264 57.3757 248.136 57.1537L248.136 57.1528C247.716 56.4275 247.081 54.3316 247.081 51.6162C247.081 49.8982 246.398 48.2506 245.183 47.0358C244.166 46.019 242.846 45.3752 241.436 45.1922V44.3026ZM240.603 46.8102C239.328 46.8102 238.106 47.3165 237.204 48.2178C236.303 49.1191 235.797 50.3416 235.797 51.6162C235.797 54.2566 235.245 56.4964 234.682 57.6761H238.092H243.108H246.524C245.961 56.4962 245.409 54.2571 245.409 51.6162C245.409 50.3416 244.902 49.1191 244.001 48.2178C243.1 47.3165 241.877 46.8102 240.603 46.8102ZM241.782 59.694C241.886 59.5898 241.975 59.4732 242.048 59.3478H239.152C239.225 59.4732 239.314 59.5898 239.418 59.694C239.731 60.0075 240.157 60.1836 240.6 60.1836C241.043 60.1836 241.469 60.0075 241.782 59.694Z" fill="white"/>
<rect x="239.555" y="42.6289" width="14.2093" height="14.2093" rx="7.10464" fill="#FF4471"/>
<path d="M242.661 52.7344L244.546 50.0956L244.923 49.8658C244.862 50.0006 244.782 50.1201 244.684 50.2243C244.592 50.3285 244.469 50.4082 244.316 50.4634C244.163 50.5186 243.967 50.5461 243.728 50.5461C243.36 50.5461 243.023 50.4603 242.716 50.2887C242.41 50.111 242.165 49.8658 241.981 49.5532C241.797 49.2406 241.705 48.8789 241.705 48.4682C241.705 48.0514 241.806 47.6714 242.008 47.3282C242.217 46.9849 242.493 46.7121 242.836 46.5099C243.179 46.3076 243.562 46.2065 243.985 46.2065C244.414 46.2065 244.8 46.3076 245.144 46.5099C245.487 46.706 245.757 46.9726 245.953 47.3098C246.155 47.6408 246.256 48.0147 246.256 48.4315C246.256 49.0199 246.051 49.6145 245.64 50.2152L243.884 52.7344H242.661ZM243.985 49.7187C244.218 49.7187 244.426 49.6635 244.61 49.5532C244.794 49.4428 244.938 49.2927 245.042 49.1026C245.147 48.9126 245.199 48.7012 245.199 48.4682C245.199 48.2231 245.147 48.0055 245.042 47.8155C244.938 47.6254 244.794 47.4753 244.61 47.3649C244.426 47.2546 244.218 47.1994 243.985 47.1994C243.752 47.1994 243.544 47.2546 243.36 47.3649C243.176 47.4753 243.029 47.6254 242.919 47.8155C242.814 48.0055 242.762 48.2231 242.762 48.4682C242.762 48.7073 242.814 48.9218 242.919 49.1118C243.029 49.2957 243.176 49.4428 243.36 49.5532C243.55 49.6635 243.758 49.7187 243.985 49.7187ZM248.008 52.7344L249.893 50.0956L250.27 49.8658C250.208 50.0006 250.129 50.1201 250.031 50.2243C249.939 50.3285 249.816 50.4082 249.663 50.4634C249.51 50.5186 249.313 50.5461 249.074 50.5461C248.707 50.5461 248.369 50.4603 248.063 50.2887C247.756 50.111 247.511 49.8658 247.327 49.5532C247.144 49.2406 247.052 48.8789 247.052 48.4682C247.052 48.0514 247.153 47.6714 247.355 47.3282C247.563 46.9849 247.839 46.7121 248.182 46.5099C248.526 46.3076 248.909 46.2065 249.332 46.2065C249.761 46.2065 250.147 46.3076 250.49 46.5099C250.834 46.706 251.103 46.9726 251.299 47.3098C251.502 47.6408 251.603 48.0147 251.603 48.4315C251.603 49.0199 251.397 49.6145 250.987 50.2152L249.231 52.7344H248.008ZM249.332 49.7187C249.565 49.7187 249.773 49.6635 249.957 49.5532C250.141 49.4428 250.285 49.2927 250.389 49.1026C250.493 48.9126 250.545 48.7012 250.545 48.4682C250.545 48.2231 250.493 48.0055 250.389 47.8155C250.285 47.6254 250.141 47.4753 249.957 47.3649C249.773 47.2546 249.565 47.1994 249.332 47.1994C249.099 47.1994 248.89 47.2546 248.707 47.3649C248.523 47.4753 248.376 47.6254 248.265 47.8155C248.161 48.0055 248.109 48.2231 248.109 48.4682C248.109 48.7073 248.161 48.9218 248.265 49.1118C248.376 49.2957 248.523 49.4428 248.707 49.5532C248.897 49.6635 249.105 49.7187 249.332 49.7187Z" fill="white"/>
<g clip-path="url(#clip1_1666_74892)">
<path fill-rule="evenodd" clip-rule="evenodd" d="M269.734 46.0585V49.6053H273.281V46.0585H269.734ZM267.961 45.8369C267.961 44.9799 268.656 44.2852 269.513 44.2852H273.503C274.36 44.2852 275.054 44.9799 275.054 45.8369V49.827C275.054 50.6839 274.36 51.3787 273.503 51.3787H269.513C268.656 51.3787 267.961 50.6839 267.961 49.827V45.8369Z" fill="white"/>
<path fill-rule="evenodd" clip-rule="evenodd" d="M269.734 54.039V57.5858H273.281V54.039H269.734ZM267.961 53.8173C267.961 52.9603 268.656 52.2656 269.513 52.2656H273.503C274.36 52.2656 275.054 52.9603 275.054 53.8173V57.8074C275.054 58.6644 274.36 59.3591 273.503 59.3591H269.513C268.656 59.3591 267.961 58.6644 267.961 57.8074V53.8173Z" fill="white"/>
<path fill-rule="evenodd" clip-rule="evenodd" d="M277.719 46.0585V49.6053H281.265V46.0585H277.719ZM275.945 45.8369C275.945 44.9799 276.64 44.2852 277.497 44.2852H281.487C282.344 44.2852 283.039 44.9799 283.039 45.8369V49.827C283.039 50.6839 282.344 51.3787 281.487 51.3787H277.497C276.64 51.3787 275.945 50.6839 275.945 49.827V45.8369Z" fill="white"/>
<path fill-rule="evenodd" clip-rule="evenodd" d="M276.832 52.2656C277.322 52.2656 277.719 52.6626 277.719 53.1523V55.8124C277.719 56.3021 277.322 56.6991 276.832 56.6991C276.342 56.6991 275.945 56.3021 275.945 55.8124V53.1523C275.945 52.6626 276.342 52.2656 276.832 52.2656Z" fill="white"/>
<path fill-rule="evenodd" clip-rule="evenodd" d="M279.492 52.2656C279.982 52.2656 280.379 52.6626 280.379 53.1523V58.4725C280.379 58.9622 279.982 59.3591 279.492 59.3591H276.832C276.342 59.3591 275.945 58.9622 275.945 58.4725C275.945 57.9827 276.342 57.5858 276.832 57.5858H278.605V53.1523C278.605 52.6626 279.002 52.2656 279.492 52.2656Z" fill="white"/>
<path fill-rule="evenodd" clip-rule="evenodd" d="M278.602 54.4824C278.602 53.9927 278.999 53.5957 279.488 53.5957H282.148C282.638 53.5957 283.035 53.9927 283.035 54.4824C283.035 54.9721 282.638 55.3691 282.148 55.3691H279.488C278.999 55.3691 278.602 54.9721 278.602 54.4824Z" fill="white"/>
<path fill-rule="evenodd" clip-rule="evenodd" d="M282.152 56.2559C282.642 56.2559 283.039 56.6528 283.039 57.1425V58.4726C283.039 58.9623 282.642 59.3593 282.152 59.3593C281.663 59.3593 281.266 58.9623 281.266 58.4726V57.1425C281.266 56.6528 281.663 56.2559 282.152 56.2559Z" fill="white"/>
</g>
<path d="M-2 71.8828H298.902V92.2262C298.902 101.459 291.418 108.943 282.186 108.943H14.7168C5.48438 108.943 -2 101.459 -2 92.2262V71.8828Z" fill="#222222"/>
<rect x="1.34375" y="75.2266" width="147.108" height="30.3734" rx="15.1867" fill="#9264F8"/>
<path d="M55.741 94.9141V86.6877H57.3324V94.9141H55.741ZM56.9111 91.544V90.128H61.0536V91.544H56.9111ZM56.9111 88.0919V86.6877H61.2525V88.0919H56.9111ZM64.8043 95.0311C64.2348 95.0311 63.7199 94.9024 63.2596 94.6449C62.8072 94.3797 62.4444 94.0247 62.1714 93.5801C61.9061 93.1276 61.7735 92.6244 61.7735 92.0705C61.7735 91.5167 61.9061 91.0213 62.1714 90.5844C62.4366 90.1397 62.7994 89.7887 63.2596 89.5313C63.7199 89.266 64.2309 89.1334 64.7926 89.1334C65.3698 89.1334 65.8847 89.266 66.3372 89.5313C66.7975 89.7887 67.1602 90.1397 67.4254 90.5844C67.6907 91.0213 67.8233 91.5167 67.8233 92.0705C67.8233 92.6244 67.6907 93.1276 67.4254 93.5801C67.1602 94.0247 66.7975 94.3797 66.3372 94.6449C65.8847 94.9024 65.3737 95.0311 64.8043 95.0311ZM64.7926 93.6035C65.0812 93.6035 65.3347 93.5411 65.5532 93.4162C65.7794 93.2836 65.951 93.1042 66.068 92.878C66.1929 92.6439 66.2553 92.3787 66.2553 92.0822C66.2553 91.7858 66.1929 91.5245 66.068 91.2982C65.9432 91.072 65.7716 90.8965 65.5532 90.7716C65.3347 90.639 65.0812 90.5727 64.7926 90.5727C64.5117 90.5727 64.2621 90.639 64.0436 90.7716C63.8252 90.8965 63.6536 91.072 63.5288 91.2982C63.4039 91.5245 63.3415 91.7858 63.3415 92.0822C63.3415 92.3787 63.4039 92.6439 63.5288 92.878C63.6536 93.1042 63.8252 93.2836 64.0436 93.4162C64.2621 93.5411 64.5117 93.6035 64.7926 93.6035ZM68.8102 94.9141V89.2621H70.3431V94.9141H68.8102ZM70.3431 91.7897L69.7463 91.3918C69.8165 90.6975 70.0194 90.1514 70.3548 89.7536C70.6903 89.3479 71.1739 89.1451 71.8058 89.1451C72.0789 89.1451 72.3246 89.1919 72.543 89.2855C72.7615 89.3713 72.9604 89.5156 73.1398 89.7185L72.1803 90.8184C72.0945 90.7248 71.9892 90.6546 71.8643 90.6078C71.7473 90.561 71.6108 90.5376 71.4548 90.5376C71.1271 90.5376 70.858 90.6429 70.6474 90.8536C70.4445 91.0564 70.3431 91.3684 70.3431 91.7897ZM77.9482 94.9609L75.5844 89.2621H77.2461L78.8141 93.6152H78.2524L79.879 89.2621H81.5523L79.0364 94.9492L77.9482 94.9609ZM76.3801 97.2778L78.1003 93.6386L79.0364 94.9492L78.0067 97.2778H76.3801ZM84.7338 95.0311C84.1643 95.0311 83.6495 94.9024 83.1892 94.6449C82.7367 94.3797 82.374 94.0247 82.1009 93.5801C81.8357 93.1276 81.7031 92.6244 81.7031 92.0705C81.7031 91.5167 81.8357 91.0213 82.1009 90.5844C82.3662 90.1397 82.7289 89.7887 83.1892 89.5313C83.6495 89.266 84.1604 89.1334 84.7221 89.1334C85.2994 89.1334 85.8143 89.266 86.2667 89.5313C86.727 89.7887 87.0898 90.1397 87.355 90.5844C87.6202 91.0213 87.7529 91.5167 87.7529 92.0705C87.7529 92.6244 87.6202 93.1276 87.355 93.5801C87.0898 94.0247 86.727 94.3797 86.2667 94.6449C85.8143 94.9024 85.3033 95.0311 84.7338 95.0311ZM84.7221 93.6035C85.0108 93.6035 85.2643 93.5411 85.4827 93.4162C85.709 93.2836 85.8806 93.1042 85.9976 92.878C86.1224 92.6439 86.1848 92.3787 86.1848 92.0822C86.1848 91.7858 86.1224 91.5245 85.9976 91.2982C85.8728 91.072 85.7012 90.8965 85.4827 90.7716C85.2643 90.639 85.0108 90.5727 84.7221 90.5727C84.4413 90.5727 84.1916 90.639 83.9732 90.7716C83.7548 90.8965 83.5831 91.072 83.4583 91.2982C83.3335 91.5245 83.2711 91.7858 83.2711 92.0822C83.2711 92.3787 83.3335 92.6439 83.4583 92.878C83.5831 93.1042 83.7548 93.2836 83.9732 93.4162C84.1916 93.5411 84.4413 93.6035 84.7221 93.6035ZM91.1503 95.0311C90.651 95.0311 90.2064 94.9258 89.8163 94.7151C89.4341 94.5045 89.1337 94.212 88.9153 93.8375C88.6968 93.463 88.5876 93.0301 88.5876 92.5386V89.2621H90.1323V92.5035C90.1323 92.7375 90.1713 92.9404 90.2493 93.112C90.3273 93.2758 90.4443 93.4006 90.6003 93.4864C90.7564 93.5723 90.9397 93.6152 91.1503 93.6152C91.4702 93.6152 91.7198 93.5177 91.8992 93.3226C92.0787 93.1276 92.1684 92.8546 92.1684 92.5035V89.2621H93.7013V92.5386C93.7013 93.0379 93.5921 93.4747 93.3736 93.8492C93.163 94.2237 92.8627 94.5162 92.4726 94.7268C92.0904 94.9297 91.6496 95.0311 91.1503 95.0311Z" fill="white"/>
<path d="M196.653 95.0311C196.068 95.0311 195.526 94.9258 195.027 94.7151C194.528 94.4967 194.091 94.1964 193.716 93.8141C193.35 93.4318 193.065 92.9872 192.862 92.4801C192.659 91.973 192.558 91.4308 192.558 90.8536C192.558 90.2685 192.659 89.7224 192.862 89.2153C193.065 88.7082 193.35 88.2675 193.716 87.893C194.091 87.5107 194.524 87.2143 195.015 87.0037C195.514 86.7852 196.057 86.676 196.642 86.676C197.281 86.676 197.843 86.7852 198.327 87.0037C198.81 87.2221 199.24 87.5185 199.614 87.893L198.853 88.6536C198.596 88.365 198.28 88.1387 197.906 87.9749C197.539 87.8111 197.118 87.7292 196.642 87.7292C196.213 87.7292 195.819 87.8072 195.46 87.9632C195.101 88.1114 194.789 88.326 194.524 88.6068C194.258 88.8877 194.052 89.2192 193.903 89.6015C193.763 89.9837 193.693 90.4011 193.693 90.8536C193.693 91.306 193.763 91.7234 193.903 92.1056C194.052 92.4879 194.258 92.8194 194.524 93.1003C194.789 93.3811 195.101 93.5996 195.46 93.7556C195.819 93.9038 196.213 93.9779 196.642 93.9779C197.149 93.9779 197.59 93.896 197.964 93.7322C198.338 93.5606 198.654 93.3304 198.912 93.0418L199.672 93.7907C199.298 94.1808 198.857 94.485 198.35 94.7034C197.851 94.9219 197.285 95.0311 196.653 95.0311ZM203.182 95.0311C202.635 95.0311 202.144 94.9024 201.707 94.6449C201.27 94.3875 200.923 94.0403 200.666 93.6035C200.408 93.1588 200.279 92.6634 200.279 92.1173C200.279 91.5791 200.408 91.0954 200.666 90.6663C200.923 90.2295 201.27 89.8823 201.707 89.6249C202.144 89.3674 202.635 89.2387 203.182 89.2387C203.72 89.2387 204.207 89.3674 204.644 89.6249C205.089 89.8745 205.44 90.2178 205.697 90.6546C205.955 91.0915 206.084 91.5791 206.084 92.1173C206.084 92.6634 205.955 93.1588 205.697 93.6035C205.44 94.0403 205.089 94.3875 204.644 94.6449C204.207 94.9024 203.72 95.0311 203.182 95.0311ZM203.182 94.013C203.533 94.013 203.845 93.9311 204.118 93.7673C204.391 93.6035 204.605 93.3811 204.761 93.1003C204.917 92.8116 204.995 92.484 204.995 92.1173C204.995 91.7585 204.913 91.4386 204.75 91.1578C204.594 90.877 204.379 90.6585 204.106 90.5025C203.841 90.3387 203.533 90.2568 203.182 90.2568C202.83 90.2568 202.518 90.3387 202.245 90.5025C201.972 90.6585 201.758 90.877 201.602 91.1578C201.446 91.4386 201.368 91.7585 201.368 92.1173C201.368 92.484 201.446 92.8116 201.602 93.1003C201.758 93.3811 201.972 93.6035 202.245 93.7673C202.518 93.9311 202.83 94.013 203.182 94.013ZM207.27 94.9141V89.3557H208.323V94.9141H207.27ZM211.026 94.9141V91.5557C211.026 91.1422 210.898 90.8184 210.64 90.5844C210.391 90.3426 210.075 90.2217 209.692 90.2217C209.435 90.2217 209.205 90.2763 209.002 90.3855C208.799 90.4947 208.635 90.6468 208.511 90.8418C208.386 91.0369 208.323 91.2709 208.323 91.544L207.89 91.3333C207.89 90.9121 207.98 90.5454 208.16 90.2334C208.347 89.9213 208.6 89.6795 208.92 89.5078C209.24 89.3284 209.599 89.2387 209.997 89.2387C210.387 89.2387 210.738 89.3245 211.05 89.4961C211.37 89.6678 211.619 89.9096 211.799 90.2217C211.986 90.5337 212.08 90.9043 212.08 91.3333V94.9141H211.026ZM214.783 94.9141V91.5557C214.783 91.1422 214.654 90.8184 214.397 90.5844C214.147 90.3426 213.835 90.2217 213.46 90.2217C213.203 90.2217 212.969 90.2763 212.758 90.3855C212.555 90.4947 212.392 90.6468 212.267 90.8418C212.142 91.0369 212.08 91.2709 212.08 91.544L211.483 91.3333C211.506 90.9043 211.619 90.5376 211.822 90.2334C212.033 89.9213 212.302 89.6795 212.63 89.5078C212.957 89.3284 213.316 89.2387 213.706 89.2387C214.112 89.2387 214.475 89.3245 214.794 89.4961C215.114 89.6678 215.368 89.9096 215.555 90.2217C215.75 90.5337 215.848 90.9082 215.848 91.345V94.9141H214.783ZM217.281 94.9141V89.3557H218.334V94.9141H217.281ZM221.037 94.9141V91.5557C221.037 91.1422 220.908 90.8184 220.651 90.5844C220.401 90.3426 220.085 90.2217 219.703 90.2217C219.446 90.2217 219.215 90.2763 219.013 90.3855C218.81 90.4947 218.646 90.6468 218.521 90.8418C218.396 91.0369 218.334 91.2709 218.334 91.544L217.901 91.3333C217.901 90.9121 217.991 90.5454 218.17 90.2334C218.357 89.9213 218.611 89.6795 218.931 89.5078C219.25 89.3284 219.609 89.2387 220.007 89.2387C220.397 89.2387 220.748 89.3245 221.06 89.4961C221.38 89.6678 221.63 89.9096 221.809 90.2217C221.997 90.5337 222.09 90.9043 222.09 91.3333V94.9141H221.037ZM224.793 94.9141V91.5557C224.793 91.1422 224.665 90.8184 224.407 90.5844C224.157 90.3426 223.845 90.2217 223.471 90.2217C223.213 90.2217 222.979 90.2763 222.769 90.3855C222.566 90.4947 222.402 90.6468 222.277 90.8418C222.153 91.0369 222.09 91.2709 222.09 91.544L221.493 91.3333C221.517 90.9043 221.63 90.5376 221.833 90.2334C222.043 89.9213 222.312 89.6795 222.64 89.5078C222.968 89.3284 223.327 89.2387 223.717 89.2387C224.122 89.2387 224.485 89.3245 224.805 89.4961C225.125 89.6678 225.378 89.9096 225.566 90.2217C225.761 90.5337 225.858 90.9082 225.858 91.345V94.9141H224.793ZM229.526 95.0311C229.074 95.0311 228.664 94.9297 228.298 94.7268C227.939 94.5162 227.658 94.2276 227.455 93.8609C227.252 93.4942 227.151 93.0691 227.151 92.5854V89.3557H228.204V92.5386C228.204 92.8429 228.255 93.1081 228.356 93.3343C228.465 93.5528 228.621 93.7205 228.824 93.8375C229.027 93.9545 229.265 94.013 229.538 94.013C229.951 94.013 230.275 93.8843 230.509 93.6269C230.743 93.3616 230.86 92.9989 230.86 92.5386V89.3557H231.913V92.5854C231.913 93.0691 231.812 93.4942 231.609 93.8609C231.406 94.2276 231.125 94.5162 230.767 94.7268C230.416 94.9297 230.002 95.0311 229.526 95.0311ZM237.257 94.9141V91.6727C237.257 91.2514 237.124 90.9043 236.859 90.6312C236.594 90.3582 236.25 90.2217 235.829 90.2217C235.548 90.2217 235.299 90.2841 235.08 90.4089C234.862 90.5337 234.69 90.7053 234.565 90.9238C234.44 91.1422 234.378 91.3918 234.378 91.6727L233.945 91.4269C233.945 91.0057 234.039 90.6312 234.226 90.3036C234.413 89.9759 234.675 89.7185 235.01 89.5313C235.345 89.3362 235.724 89.2387 236.145 89.2387C236.566 89.2387 236.937 89.344 237.257 89.5547C237.584 89.7653 237.842 90.0422 238.029 90.3855C238.216 90.7209 238.31 91.0798 238.31 91.462V94.9141H237.257ZM233.325 94.9141V89.3557H234.378V94.9141H233.325ZM239.747 94.9141V89.3557H240.801V94.9141H239.747ZM240.274 88.2441C240.079 88.2441 239.919 88.1816 239.794 88.0568C239.669 87.9242 239.607 87.7604 239.607 87.5654C239.607 87.3781 239.669 87.2221 239.794 87.0973C239.919 86.9647 240.079 86.8984 240.274 86.8984C240.469 86.8984 240.629 86.9647 240.754 87.0973C240.879 87.2221 240.941 87.3781 240.941 87.5654C240.941 87.7604 240.879 87.9242 240.754 88.0568C240.629 88.1816 240.469 88.2441 240.274 88.2441ZM243.207 94.9141V87.0271H244.26V94.9141H243.207ZM241.838 90.3153V89.3557H245.629V90.3153H241.838ZM248.486 94.9609L246.076 89.3557H247.246L249.036 93.7439H248.662L250.546 89.3557H251.716L249.118 94.9609H248.486ZM246.895 97.2427L248.533 93.8843L249.118 94.9609L248.065 97.2427H246.895Z" fill="white"/>
<defs>
<clipPath id="clip0_1666_74892">
<rect width="26.7469" height="26.7469" fill="white" transform="translate(11.375 35.1055)"/>
</clipPath>
<clipPath id="clip1_1666_74892">
<rect width="20.0602" height="20.0602" fill="white" transform="translate(265.469 41.793)"/>
</clipPath>
</defs>
</svg>
