<svg width="547" height="2153" viewBox="0 0 547 2153" fill="none" xmlns="http://www.w3.org/2000/svg">
<g clip-path="url(#clip0_60_75484)">
<path d="M69 543.254C69 -82 747.5 69.3481 733.876 36L917.181 357.001L882.376 2298C672.376 2244 329.261 2038.3 284.376 1668C260.376 1470 279.436 1392.43 371.08 1079.25C448.978 813.046 468.722 688.118 408.239 615.686C351.205 559.212 248.838 636.381 165.731 688.118C82.6239 739.855 69 603.179 69 543.254Z" fill="#5E409E"/>
</g>
<g clip-path="url(#clip1_60_75484)">
<path d="M-2.21728e-05 507.254C2.62573e-06 -118 677.7 33.3481 664.092 2.90284e-05L847.181 321.001L812.417 2262C602.664 2208 259.954 2002.3 215.122 1632C191.15 1434 210.188 1356.43 301.724 1043.25C379.53 777.046 399.25 652.118 338.839 579.686C281.872 523.212 179.626 600.381 96.6168 652.118C13.6079 703.855 -2.47922e-05 567.179 -2.21728e-05 507.254Z" stroke="white" stroke-width="3"/>
</g>
<defs>
<clipPath id="clip0_60_75484">
<rect width="478" height="2109" fill="white" transform="translate(69 44)"/>
</clipPath>
<clipPath id="clip1_60_75484">
<rect width="547" height="2150" fill="white"/>
</clipPath>
</defs>
</svg>
